<?xml version="1.0" encoding="iso-8859-1"?>
<!-- Generator: Adobe Illustrator 19.0.0, SVG Export Plug-In . SVG Version: 6.00 Build 0)  -->
<svg version="1.1" id="Capa_1" xmlns="http://www.w3.org/2000/svg" xmlns:xlink="http://www.w3.org/1999/xlink" x="0px" y="0px"
	 viewBox="0 0 512 512" style="enable-background:new 0 0 512 512;" xml:space="preserve">
<g>
	<g>
		<path d="M333.958,313.405c-17.045-8.058-32.194-19.203-45.025-33.126c-1.604-1.74-3.161-3.513-4.672-5.317l-0.952,0.878
			l-44.403,12.305c-0.096-30.549-14.193-59.013-37.952-77.605c5.016-11.806,7.85-24.52,8.287-37.414
			c0.948-27.936-9.04-54.569-28.123-74.993s-44.977-32.193-72.913-33.141C50.587,63.015,2.095,108.352,0.073,166.01
			c-1.354,38.592,16.293,93.268,46.053,142.693c25.267,41.962,70.483,99.604,142.41,135.909l4.87,2.458l5.311-1.245
			c37.846-8.869,108.342-49.806,145.058-84.234c12.225-11.463,23.798-23.537,34.403-35.375
			C362.83,324.329,348.001,320.043,333.958,313.405z"/>
	</g>
</g>
<g>
	<g>
		<path d="M481.34,102.97c-20.97-22.757-49.548-35.984-80.467-37.246c-1.627-0.067-3.251-0.1-4.869-0.1
			c-29.142,0-56.807,10.794-78.366,30.662c-22.756,20.97-35.983,49.547-37.245,80.466c-2.606,63.827,47.2,117.874,111.028,120.481
			c1.619,0.066,3.23,0.099,4.841,0.099c29.151-0.001,56.83-10.788,78.394-30.661c22.756-20.97,35.983-49.547,37.245-80.466
			C513.164,155.286,502.31,125.725,481.34,102.97z M452.286,183.77c-0.612,14.996-7.027,28.854-18.063,39.025
			c-10.779,9.934-24.437,14.843-38.054,14.843c-15.163,0-30.277-6.081-41.339-18.085c-20.995-22.783-19.54-58.398,3.242-79.393
			c22.783-20.995,58.398-19.539,79.393,3.242C447.635,154.438,452.898,168.774,452.286,183.77z"/>
	</g>
</g>
<g>
	<g>
		<path d="M415.403,163.732c-4.74-5.143-11.199-8.133-18.188-8.419c-6.984-0.276-13.67,2.168-18.814,6.908
			c-5.144,4.74-8.133,11.199-8.419,18.188c-0.285,6.989,2.168,13.67,6.908,18.814c9.785,10.618,26.384,11.296,37.002,1.511
			c5.143-4.74,8.133-11.199,8.418-18.188C422.597,175.557,420.143,168.875,415.403,163.732z"/>
	</g>
</g>
<g>
</g>
<g>
</g>
<g>
</g>
<g>
</g>
<g>
</g>
<g>
</g>
<g>
</g>
<g>
</g>
<g>
</g>
<g>
</g>
<g>
</g>
<g>
</g>
<g>
</g>
<g>
</g>
<g>
</g>
</svg>
